<svg width="40" height="49" viewBox="0 0 40 49" fill="none" xmlns="http://www.w3.org/2000/svg">
<path d="M28.657 0.417744C26.4312 0.675715 23.2812 2.64618 21.7172 4.75387C20.8148 5.96139 20.2843 7.11404 19.825 8.84848L19.5953 9.71571L19.6062 10.6378C19.6172 11.1428 19.6445 11.6148 19.6718 11.6917C19.7429 11.8728 19.8797 11.9002 20.8422 11.9057C21.6406 11.9112 21.6898 11.9057 22.3734 11.7026C24.2 11.1702 25.5398 10.3689 26.4914 9.2327C26.7211 8.95277 27.0656 8.57954 27.2461 8.39292C27.8476 7.80013 28.6187 6.48283 29.0453 5.34116C29.4718 4.19401 29.6632 3.12919 29.7179 1.61429L29.7507 0.642783L29.6086 0.500075C29.45 0.340901 29.3625 0.335412 28.657 0.417744Z" fill="#717171"/>
<path d="M28.1484 11.763C27.0656 11.8179 24.1508 12.6302 22.0562 13.4536C20.7875 13.953 20.7875 13.953 20.5359 13.9969C20.0984 14.0683 19.0265 13.7554 17.1836 13.009C16.2047 12.6193 15.1984 12.3229 13.7109 11.9826C13.0875 11.8453 12.0539 11.8289 11.6054 11.9551C11.425 12.0045 10.8562 12.1198 10.3422 12.2076C9.23747 12.4052 8.61403 12.5973 7.78278 13.009C5.27263 14.2384 3.56091 16.0058 2.20466 18.7722C1.6031 19.9907 1.16013 21.1817 0.832002 22.4496C0.345283 24.3323 0.334346 27.9439 0.810127 30.1339C0.864814 30.4029 0.914033 30.7212 0.914033 30.8474C0.914033 31.1109 0.963252 31.3085 1.42263 33.1253C1.84919 34.8048 1.80544 34.6676 2.62028 36.7204C3.76325 39.602 4.12419 40.2387 6.45935 43.4716C7.41638 44.7944 7.9031 45.3982 8.60856 46.1172C9.34685 46.8746 9.94294 47.3137 10.7851 47.7309C11.7367 48.1974 12.1523 48.3017 13.0273 48.2962C14.1484 48.2962 15.0508 48.0657 16.7679 47.3412C17.8508 46.8856 17.9218 46.8637 19.8906 46.4575C20.4812 46.3313 21.0281 46.3422 21.8593 46.4794C22.1437 46.5234 22.5703 46.5892 22.8 46.6222C23.2648 46.688 23.7351 46.8417 24.9492 47.3302C26.4148 47.923 27.4484 48.1865 28.5312 48.2523C30.1062 48.3511 31.6265 47.6486 33.2508 46.0843C34.9078 44.4761 36.4554 42.2751 38.0195 39.3056C38.4406 38.5043 39.1133 36.8631 39.2281 36.3691C39.2773 36.1715 39.3593 35.9246 39.4195 35.8258C39.4742 35.727 39.5234 35.5897 39.5234 35.5294C39.5234 35.3318 39.1242 35.0189 38.4187 34.6621C37.0898 33.976 35.7828 32.8014 34.9023 31.4787C34.2734 30.5291 33.639 29.1075 33.4804 28.2677C33.2125 26.8846 33.1359 25.3697 33.289 24.3158C33.3273 24.0414 33.464 23.4651 33.5953 23.026C34.1586 21.1214 34.5468 20.3584 35.4273 19.4144C35.6953 19.1344 35.914 18.8765 35.914 18.8545C35.914 18.7612 37.2539 17.636 37.582 17.4549C37.7625 17.3506 37.9922 17.1914 38.0906 17.0926C38.3914 16.7962 38.3476 16.6809 37.5929 15.7918C36.5812 14.6007 35.307 13.6237 33.8086 12.8937C32.8734 12.4381 32.2281 12.2131 31.3258 12.0265C30.4015 11.8289 29.0234 11.7136 28.1484 11.763Z" fill="#717171"/>
</svg>
